<svg version="1.2" xmlns="http://www.w3.org/2000/svg" viewBox="0 0 1548 166" width="1548" height="166"><defs><clipPath clipPathUnits="userSpaceOnUse" id="cp1"><path d="m-191-192h3110v4268h-3110z"/></clipPath><linearGradient id="P" gradientUnits="userSpaceOnUse"/><linearGradient id="g1" x2="1" href="#P" gradientTransform="matrix(165.191,-165.191,165.201,165.201,.203,165.798)"><stop stop-color="#a5833a"/><stop offset=".36" stop-color="#f6dda3"/><stop offset=".75" stop-color="#dfc371"/><stop offset="1" stop-color="#b79e50"/></linearGradient></defs><style>.a{fill:url(#g1)}</style><g clip-path="url(#cp1)"><path class="a" d="m82.6 0.8c-1.6 21-10.5 41.4-26.8 57.2-15.6 15.2-35.4 23.5-55.6 25l-0.2 0.2 0.3 0.2c20.9 1.6 41.4 10.5 57.2 26.7 15.3 15.6 23.6 35.4 25.1 55.5l0.2 0.2 0.2-0.2c1.6-21 10.5-41.4 26.8-57.2 15.6-15.2 35.4-23.5 55.6-25l0.2-0.2-0.3-0.2c-20.9-1.6-41.4-10.5-57.2-26.7-15.3-15.6-23.6-35.4-25.1-55.5l-0.2-0.2z"/><path fill-rule="evenodd" d="m243.4 42h63.6c18 0 27.9 8.3 27.9 21.5 0 10.7-8.6 16.9-26.7 18.2v0.4c19.9 0.9 29.5 9.3 29.5 22.1 0 13.9-11.1 24.4-28 24.4h-66.3zm59.3 35.5c11.9 0 18.3-2.6 18.3-11.6 0-9.4-6.4-12.4-18.3-12.4h-45.5l0.1 24zm2.8 39.5c11.7 0 18.3-5.9 18.3-15.8 0-9.4-6.6-14.9-18.3-14.9h-48.2l0.2 30.7zm276.9-34.8v-40.2h13.9v43.9c0 22.6 9.1 33.3 30.7 33.3 21.7 0 30.7-10.7 30.7-33.3v-43.9h13.8v40.2c0 36.9-16.1 48.4-44.5 48.4-28.3 0-44.6-11.5-44.6-48.4zm142.9-28.7h-40.3v-11.5h94.6v11.5h-40.4v75.1h-13.9zm107.8 47.1l-43.7-58.6h17l33.7 45.5 33.7-45.5h17l-43.8 58.5v28.1h-13.9zm416.1-58.7h13.9v75.1h63.3v11.5h-77.2zm105.9 11.5h-40.3v-11.5h94.6v11.5h-40.4v75.1h-13.9zm-361.7-11.5v86.6h-13.9v-40.1h-62.1v40.1h-13.8v-86.6h13.8v35h62.1v-35zm36.2 11.5v23.7h60.6v11.4h-60.6v28.5h67.9v11.5h-81.8v-86.6h81.8v11.5zm-658.9 0v23.7h60.6v11.4h-60.6v28.5h68v11.5h-81.9v-86.6h81.9v11.5zm1142-11.5v86.6h-13.9v-40.1h-62.1v40.1h-13.9v-86.6h13.9v35h62.1v-35z"/><path fill-rule="evenodd" d="m505 42h18.5l53.3 86.6h-15.7l-12-20.2h-69.9l-11.9 20.2h-15.7zm37.3 54.9l-28-47.7-28.2 47.7zm621.6-54.9h18.5l53.3 86.6h-15.6l-12-20.2h-69.9l-11.9 20.2h-15.8zm37.3 54.9l-28-47.7-28.1 47.7zm327.7-54v10.2h-2v-10.2h-3.5v-1.9h9.1v1.9zm16.5 10.2v-9.3l-4 5.5h-0.2l-4-5.5v9.3h-2v-12.1h2.3l3.8 5.1 3.7-5.1h2.3v12.1z"/></g></svg>